<svg id="Lager_1" data-name="Lager 1" xmlns="http://www.w3.org/2000/svg" viewBox="0 0 455.1 455.78"><defs><style>.cls-1{fill:#00426b;}.cls-2{fill:#fff;}.cls-3,.cls-4,.cls-5{fill:#1d1d1b;}.cls-4{font-size:15.3px;}.cls-4,.cls-5{font-family:Helvetica Neue;}.cls-5{font-size:9.5px;}.cls-6{font-size:10px;}.cls-7{fill:#e6e5ed;}</style></defs><title>Market Map</title><path class="cls-1" d="M604.72,318.29l18.13-18.13H591c0-.73,0-1.46,0-2.19s0-1.63,0-2.44H622.8L604.67,277.4l-18.1-18.1A169.44,169.44,0,0,0,556.21,195l1.29,1.29V163.59l-8.18,8.18-7.11,7.11q-1-1.05-2.09-2.09l7.09-7.09,8.18-8.18H522.65l1.06,1.06a169.43,169.43,0,0,0-64.4-30.29l-17.9-17.9L423.27,96.26V128l-2.31,0-2.32,0V96.31l-18.13,18.13-17.84,17.84a169.41,169.41,0,0,0-63.28,29.4l0.19-.19H286.84l8.18,8.18,6.95,6.95q-1.05,1-2.09,2.09L293,171.79l-8.18-8.18v32.66a169.41,169.41,0,0,0-29.49,63.36v-0.29l-18.13,18.13L219,295.61H251c0,0.79,0,1.57,0,2.36s0,1.51,0,2.27H219.07l18.13,18.13,18.13,18.13a169.42,169.42,0,0,0,29.42,63.14v32.51l8.18-8.18,6.85-6.85q1,1.05,2.09,2.09L295,426l-8.18,8.18h32.48a169.42,169.42,0,0,0,62.8,29.31H382l18.13,18.13L418.3,499.8V468c0.89,0,1.78,0,2.67,0l2,0v31.76l18.13-18.13,17.88-17.88A169.41,169.41,0,0,0,523,433.88l-0.37.37h32.74l-8.18-8.18-7-7q1.05-1,2.09-2.09l7,7,8.18,8.18V399.4l-0.46.46a169.42,169.42,0,0,0,29.61-63.47ZM539.21,180.45a166.27,166.27,0,0,1,48.52,114.83H424.39Zm-115.53,114V131.21a166.26,166.26,0,0,1,114.76,48.48Zm-5.4-163.24V294.42L303.52,179.65A166.26,166.26,0,0,1,418.28,131.21ZM302.75,180.42L417.61,295.27H254.2A166.27,166.27,0,0,1,302.75,180.42Zm114.7,120.26L302.68,415.45A166.26,166.26,0,0,1,254.2,300.68H417.46Zm0.83,0.7V464.74a166.26,166.26,0,0,1-114.84-48.52Zm5.4,163.36V301.35L538.52,416.19A166.27,166.27,0,0,1,423.68,464.74Zm115.6-49.32L424.54,300.68H587.73A166.26,166.26,0,0,1,539.29,415.42Z" transform="translate(-191.06 -71.39)"/><circle class="cls-2" cx="420.91" cy="298" r="58.39" transform="translate(-105.48 618.43) rotate(-84.74)"/><path class="cls-3" d="M414.47,357.08l0.19-2.05,1,0.09a57.9,57.9,0,0,0,10,0l1-.08,0.17,2.05-1,.08a59.93,59.93,0,0,1-10.35-.05Zm-8.17-1.46-1-.27a59.16,59.16,0,0,1-9.72-3.57l-0.93-.44,0.88-1.86,0.93,0.44a57.1,57.1,0,0,0,9.38,3.45l1,0.27Zm28.76,0.12-0.53-2,1-.26a57.21,57.21,0,0,0,9.4-3.38l0.93-.43,0.86,1.87-0.93.43a59.26,59.26,0,0,1-9.74,3.51Zm-47.58-8.59-0.84-.59a59.68,59.68,0,0,1-7.9-6.69l-0.73-.73,1.46-1.45,0.73,0.73a57.64,57.64,0,0,0,7.63,6.46l0.84,0.59Zm66.45,0.26-1.18-1.69,0.85-.59a57.84,57.84,0,0,0,7.69-6.39L462,338l1.45,1.46-0.73.72a59.93,59.93,0,0,1-8,6.62ZM372.7,332.75l-0.59-.85a59.69,59.69,0,0,1-5.15-9l-0.43-.93,1.87-.87,0.43,0.93a57.65,57.65,0,0,0,5,8.67l0.59,0.85Zm96.15,0.39-1.68-1.19,0.59-.84a57.3,57.3,0,0,0,5-8.63l0.44-.93,1.86,0.88-0.44.93a59.34,59.34,0,0,1-5.22,8.95Zm-105.14-19-0.26-1A59.16,59.16,0,0,1,361.69,303l-0.09-1,2.05-.17,0.09,1a57.12,57.12,0,0,0,1.7,9.85l0.26,1ZM478,314.63l-2-.54,0.27-1a57.93,57.93,0,0,0,1.77-9.84l0.1-1.17,2.05,0.18-0.1,1.17a60,60,0,0,1-1.83,10.19ZM363.69,293.84l-2.05-.19,0.1-1.1a60,60,0,0,1,1.81-10.12l0.27-1,2,0.54-0.27,1a57.92,57.92,0,0,0-1.75,9.77Zm114.46,0.31-0.09-1a57.1,57.1,0,0,0-1.71-9.85l-0.26-1,2-.53,0.26,1a59.15,59.15,0,0,1,1.77,10.2l0.09,1ZM368.55,274.52l-1.86-.88,0.44-.93a59.31,59.31,0,0,1,5.21-9l0.59-.84,1.68,1.19-0.59.84a57.22,57.22,0,0,0-5,8.64Zm104.85,0.29-0.43-.93a57.67,57.67,0,0,0-5-8.66l-0.59-.84,1.69-1.18,0.59,0.84a59.72,59.72,0,0,1,5.16,9l0.43,0.93ZM379.74,258l-1.45-1.46,0.73-.73a59.91,59.91,0,0,1,8-6.63l0.85-.59,1.18,1.69-0.85.59a57.86,57.86,0,0,0-7.68,6.4Zm82.55,0.23-0.73-.73a57.69,57.69,0,0,0-7.64-6.45l-0.84-.59,1.19-1.68,0.84,0.59a59.75,59.75,0,0,1,7.91,6.68l0.73,0.73Zm-66.41-11.9L395,244.5l0.93-.43a59.3,59.3,0,0,1,9.74-3.52l1-.26,0.53,2-1,.26a57.23,57.23,0,0,0-9.4,3.4Zm50.33,0.13-0.93-.44a57.1,57.1,0,0,0-9.38-3.44l-1-.27,0.54-2,1,0.27a59.17,59.17,0,0,1,9.72,3.56l0.93,0.44ZM415,240.92l-0.17-2.05,1-.09a60,60,0,0,1,10.35,0l1,0.09L427.09,241l-1-.09a57.87,57.87,0,0,0-10,0Z" transform="translate(-191.06 -71.39)"/><text class="cls-4" transform="translate(171.81 13.11)">PROGRESSIVE</text><text class="cls-4" transform="translate(13.11 264.34) rotate(-90)">SENSIBLE</text><text class="cls-4" transform="translate(441.99 169.72) rotate(90)">SPON<tspan x="44.45" y="0">T</tspan><tspan x="52.68" y="0">ANEOUS</tspan></text><text class="cls-4" transform="translate(177.07 451.11)">TRADITIONAL</text><text class="cls-5" transform="translate(343.61 439.07)">XOANON MARKET MAP<tspan class="cls-6"><tspan x="-0.78" y="12">© 2016 Xoanon Analytics</tspan></tspan></text><path class="cls-7" d="M432,315.29V325h8V310.39L448.18,325H455V297.93L448.06,273h-7.5L432,297.87v7.67c0-3.56-3.46-6.41-7.41-7.54a12.74,12.74,0,0,0,9.22-12.37c0-6.87-4.62-13-12.63-13s-12.75,6.09-12.75,13A12.76,12.76,0,0,0,417.69,298c-3.91,1.12-7.69,3.92-7.69,7.41v-7.35l-6.93-12.42L409.37,273h-7.84l-2.95,6.66-3-6.66h-8.05l6.27,12.63L387,298.05V325h7V310.52L402.33,325H410v-9.58c1,4.53,5,7.9,11,7.9S431,319.88,432,315.29Zm12.25-32.55L445.9,290h-3.23Zm-3.81,15.74,0.7-2.48h6.3l0.73,4h0v11.81ZM402,310.62l-7.57-12.57,3.7-6.48,3.87,6.48v12.57Zm19.34-31.41c3.48,0,5.08,3,5.08,6.41s-1.64,6.34-5.08,6.34-5.08-2.92-5.08-6.34S417.86,279.22,421.34,279.22Zm-5.08,31.21c0-3.42,1.6-6.41,5.08-6.41s5.08,3,5.08,6.41-1.64,6.34-5.08,6.34S416.26,313.84,416.26,310.43Z" transform="translate(-191.06 -71.39)"/></svg>